<?xml version="1.0" encoding="utf-8"?>
<!-- Generator: Adobe Illustrator 18.0.0, SVG Export Plug-In . SVG Version: 6.00 Build 0)  -->
<!DOCTYPE svg PUBLIC "-//W3C//DTD SVG 1.1//EN" "http://www.w3.org/Graphics/SVG/1.1/DTD/svg11.dtd">
<svg version="1.1" id="Layer_1" xmlns="http://www.w3.org/2000/svg" xmlns:xlink="http://www.w3.org/1999/xlink" x="0px" y="0px"
	 viewBox="0 0 465.7 127.4" enable-background="new 0 0 465.7 127.4" xml:space="preserve">
<g>
	<path fill="#F89728" d="M19,39.6C30.4,19.9,66.8,2.9,102.3,0.2C99.1,0,95.8,0,92.3,0.1c-37.1,1.2-76.9,19-88.9,39.7
		c-12,20.7,8.4,36.5,45.6,35.3c1.9-0.1,3.8-0.2,5.7-0.3C23.9,73.1,8.2,58.4,19,39.6"/>
	<path fill="#8DC63F" d="M42.9,40.8c7.9-13.8,33.5-25.7,58.3-27.6c-2.2-0.1-4.5-0.1-7-0.1C68.3,14,40.4,26.4,32,40.9
		c-8.4,14.5,5.9,25.6,31.9,24.7c1.3,0,2.6-0.1,4-0.2C46.4,64.2,35.3,53.9,42.9,40.8"/>
	<path fill="#0079C1" d="M107.6,56.8c-0.5-4.2-3.4-5.7-6.7-5.7c-6.9,0-9.1,6.4-9.1,14c0,2.5,0.1,13,9,13c6.1,0,6.7-4.4,7-6h11.9
		C119.6,84.9,106.4,86,101,86c-4,0-11.1-0.7-15.7-5.5C80.8,75.7,80,69.1,80,64.8c0-5.7,1.3-11.4,5.2-15.8c4.2-4.8,9.7-6.1,15.7-6.1
		c6.7,0,11.8,1.6,15.1,5.1c3.3,3.6,3.4,7.3,3.4,8.8H107.6z"/>
	<path fill="#0079C1" d="M124.7,43.8h10.9v15.8c1.1-1.2,3.8-3.8,9-3.8c2.8,0,5.7,0.7,8,2.9c2.9,2.6,2.9,5.7,2.9,9.8v16.8h-10.7V69.7
		c0-2.4,0-7.1-4.5-7.1c-3.4,0-4.2,2.9-4.5,4c-0.3,1.3-0.3,3.2-0.3,5.6v13h-10.8V43.8z"/>
	<path fill="#0079C1" d="M170.6,75.9c0,2.1,1.4,3.9,4,3.9c1.1,0,3.2-0.5,4.3-2.8c0.9-1.8,0.9-4.2,0.8-5.4
		C175,71.7,170.6,71.7,170.6,75.9 M179.9,85.2c-0.2-1-0.3-2.3-0.3-4.1c-1.3,1.9-3.6,4.7-9.5,4.7c-7.1,0-10.2-3.8-10.2-9
		c0-7.9,7.3-10.7,19.7-10.2c0.1-3.1-0.3-6-3.6-6c-2,0-3.9,1.1-3.8,4.4h-10.3c0.1-1.3,0.1-3.8,2.2-6c2.2-2.3,6.7-3.6,11.9-3.6
		c2.6,0,8.1,0.3,11.1,3.3c1.8,1.8,2.5,4.5,2.5,7.6v13.4c0,2.1,0.1,2.6,0.6,5.5H179.9z"/>
	<path fill="#0079C1" d="M205.6,75.9c0,0.5,0,1.6,0.5,2.6c0.4,0.9,1.3,1.8,3.2,1.8c2.5,0,3.3-1.7,3.3-2.9c0-2-1.7-2.6-4.1-3.2
		l-5.9-1.7c-1.8-0.5-7-1.9-7-7.8c0-2.9,1.5-5.3,3.4-6.5c2.5-1.8,6-2.5,10.2-2.5c6.2,0,12.7,1.7,13.2,9.7h-10.2c0-0.9,0-2-0.4-2.8
		c-0.5-0.9-1.3-1.6-3-1.6c-1.7,0-3.2,0.7-3.2,2.5c0,1.7,1.2,2.3,2.9,2.8l7.7,2.1c2.8,0.7,6.8,2.3,6.8,7.9c0,9.8-11.3,9.8-13.8,9.8
		c-5.9,0-14.3-0.9-14.2-10.2H205.6z"/>
	<path fill="#0079C1" d="M246.6,67.1c-0.1-1.7-0.5-6-5.2-6c-4.7,0-5.1,4.7-5.2,6H246.6z M236.1,73c0,1.5,0,7,5.5,7
		c2.9,0,4.6-1.5,4.9-4.2h10c-0.8,7.2-7.6,10-15,10c-10,0-15.4-5.1-15.4-14.6c0-9.6,4.7-15.9,15.3-15.9c8,0,11.8,3.3,13.7,7.3
		c1.3,2.5,1.6,5.2,1.6,10.3H236.1z"/>
	<path fill="#0079C1" d="M273.7,62h6.8c3.8,0,9.7-0.3,11.1-7.1c1.4-6.5-4-6.5-7-6.5h-8L273.7,62z M271.8,43.8h13.9
		c5,0,8.4,0.3,10.6,3.3c1.6,2.1,2,4.9,1.3,8c-0.7,3.2-2.3,5.9-5,8.1c-2.7,2.2-5.8,3.6-13.3,3.6h-6.7l-3.9,18.4H263L271.8,43.8z"/>
	<polygon fill="#0079C1" points="304.7,43.8 310.1,43.8 301.3,85.2 295.9,85.2 	"/>
	<path fill="#0079C1" d="M325.2,71c-2.2,0-10.4,0-11.6,5.9c-0.4,1.8,0.1,5,4.9,5c2.8,0,5-1.1,6.8-3.1c1.6-2,2-3.6,3-7.6
		C327.3,71.1,326.5,71,325.2,71 M325.9,85.2c-0.1-1.4,0.1-2.8,0.4-4.3c-3.6,4.8-7.6,5.2-10,5.2c-6.6,0-9.4-3.7-8.4-8.5
		c0.5-2.3,2.1-6,6.8-8.4c3.5-1.7,8.1-1.9,10.4-1.9c1.4,0,2.2,0.1,3.9,0.2c0.8-3.6,1.1-5.1,0.3-6.4c-0.8-1.4-3-1.9-4.6-1.9
		c-5.5,0-6.5,3.7-6.8,4.9h-5.4c0.5-1.5,1.1-3.5,3.2-5.5c2.7-2.4,6.9-3.1,10-3.1c4.2,0,8.4,1.3,9.3,4.2c0.6,1.7,0.3,3.1,0,4.4
		L331.8,78c-0.1,0.5-0.9,4.3-1.1,7.2H325.9z"/>
	<path fill="#0079C1" d="M342.9,76.7c-0.5,2.2,0,5.2,5.2,5.2c2.2,0,4-0.4,5.4-1.8c0.7-0.7,1.3-1.7,1.5-2.7c0.6-2.8-1.3-3.3-5.4-4.3
		c-5.7-1.4-10.5-2.6-9.3-8.6c1.1-5.3,6.4-8.7,13.1-8.7c3.6,0,8.4,1,9.4,4.5c0.4,1.6,0.1,3-0.1,4.2h-5.5c1.1-4.4-2.6-4.7-4.6-4.7
		c-0.8,0-5.9,0-6.7,4.1c-0.6,2.6,1.9,3.3,3.3,3.7c7.6,1.9,9.2,2.4,10.6,4c1.3,1.5,1.4,3.5,1,5.3c-0.7,3.2-3,6-5.5,7.3
		c-2.9,1.6-6,2-9,2c-5.9,0-10.8-2.4-9.3-9.4H342.9z"/>
	<path fill="#0079C1" d="M367.2,56.3h5.1l1.3-6l5.7-1.7l-1.6,7.7h6.4l-0.8,4h-6.4l-3.7,17.3c-0.3,1.4-0.8,3.8,3,3.8
		c1.1,0,2.2-0.2,2.6-0.3l-0.9,4.2c-1,0.2-2.6,0.3-4.6,0.3c-4.9,0-7-1.4-6-6.1l4.1-19.2h-5.1L367.2,56.3z"/>
	<path fill="#0079C1" d="M390.6,43.9h6.5l-1.3,5.9h-6.5L390.6,43.9z M388.5,56.4h5.4l-6.1,28.8h-5.4L388.5,56.4z"/>
	<path fill="#0079C1" d="M415.4,65.6c0.2-1.3,0.8-6-4.5-6c-7.5,0-9.3,8.7-9.8,10.9c-1.3,5.9-1,11.4,4.7,11.4c4.6,0,6.9-3.4,7.6-6.3
		h5.5c-1.5,5.6-6.7,10.3-13.8,10.3c-2,0-6.3-0.4-8.7-3.7c-1.3-2-2.4-5.1-1.1-11c2.5-12,10.7-15.6,16.4-15.6c1.9,0,6.1,0.4,8.1,3.6
		c1.6,2.5,1.3,4.8,1,6.4H415.4z"/>
	<path fill="#0079C1" d="M428.5,76.7c-0.5,2.2,0,5.2,5.2,5.2c2.2,0,4-0.4,5.4-1.8c0.7-0.7,1.3-1.7,1.5-2.7c0.6-2.8-1.3-3.3-5.4-4.3
		c-5.7-1.4-10.5-2.6-9.3-8.6c1.1-5.3,6.4-8.7,13.1-8.7c3.6,0,8.5,1,9.4,4.5c0.4,1.6,0.1,3-0.1,4.2h-5.5c1.1-4.4-2.6-4.7-4.6-4.7
		c-0.8,0-5.9,0-6.7,4.1c-0.6,2.6,1.9,3.3,3.3,3.7c7.6,1.9,9.2,2.4,10.6,4c1.3,1.5,1.4,3.5,1.1,5.3c-0.7,3.2-3,6-5.5,7.3
		c-2.9,1.6-6,2-9,2c-5.9,0-10.8-2.4-9.3-9.4H428.5z"/>
	<path fill="#0079C1" d="M458.6,60.9h0.7c0.6,0,1.3,0,1.3-0.8c0-0.9-0.7-0.9-1.3-0.9h-0.7V60.9z M456.6,57.9h3.2
		c1.1,0,2.6,0,2.6,1.8c0,0.7-0.3,1.5-1.7,1.6v0c1.3,0,1.4,0.7,1.5,1.4c0.2,1.5,0.2,1.6,0.4,2h-2.1c-0.1-0.4-0.2-0.9-0.2-1.6
		c-0.1-0.8-0.1-1.1-1-1.1h-0.8v2.7h-1.9V57.9z M454.4,61.4c0,2.8,2.3,5.1,5.1,5.1c2.9,0,5.1-2.3,5.1-5.1c0-2.9-2.3-5.1-5.1-5.1
		C456.7,56.2,454.4,58.5,454.4,61.4 M465.7,61.4c0,3.4-2.8,6.2-6.2,6.2s-6.2-2.8-6.2-6.2c0-3.5,2.8-6.2,6.2-6.2
		C462.8,55.2,465.7,57.9,465.7,61.4"/>
	<path fill="#808285" d="M168.7,113.7h3.5c0.2,0,1.5,0,2.2-0.4c0.4-0.2,1.3-0.8,1.5-2.1c0.6-2.6-1.8-2.6-2.7-2.6h-3.5L168.7,113.7z
		 M168.1,106.7h5.8c0.8,0,2.5,0,3.5,0.8c1,0.8,1.4,2,1.1,3.3c-0.2,1.1-0.9,2.1-1.7,2.9c-0.8,0.7-1.6,0.9-2.1,1.1
		c1.5,0.4,2,1.1,1.8,3.1c-0.2,1.9-0.3,3.3-0.1,5.1h-2.4c-0.1-1.1,0.1-3,0.2-4.3c0.2-2.3-0.2-3-2.9-3h-2.8l-1.5,7.3h-2.2L168.1,106.7
		z"/>
	<path fill="#808285" d="M187.3,116.2c0.2-1.1,0.5-3.3-2.1-3.3c-1.4,0-3.2,0.8-3.8,3.3H187.3z M181.1,117.6c-0.5,2.3,0.1,4,2.4,4
		c1.4,0,2.6-0.7,3.1-2.3h2.1c-0.2,0.6-0.5,1.5-1.5,2.3c-0.6,0.6-1.9,1.5-4.2,1.5c-3.5,0-4.7-2.2-4-5.7c0.5-2.2,1.3-4,3.3-5.3
		c1.2-0.8,2.6-0.8,3.2-0.8c5,0,4,4.4,3.5,6.3H181.1z"/>
	<path fill="#808285" d="M199.1,114c-0.3-0.6-1-1.1-2.2-1.1c-3.1,0-3.9,3.7-4,4.5c-0.4,2-0.4,4.3,2.2,4.3c3.3,0,4.1-3.6,4.3-4.5
		C199.6,115.5,199.4,114.6,199.1,114 M201.4,106.8h2.1l-3,14.3c-0.1,0.2-0.2,1.2-0.3,1.8h-2.1l0.3-1.8c-0.2,0.3-0.6,0.8-1.3,1.2
		c-1,0.6-2.2,0.8-2.9,0.8c-1.5,0-4.7-0.8-3.6-5.7c0.9-4.3,3.7-6.1,6.4-6.1c2.4,0,2.9,1.4,3.1,1.9L201.4,106.8z"/>
	<path fill="#808285" d="M211.6,116.2c0.2-1.1,0.5-3.3-2.1-3.3c-1.4,0-3.2,0.8-3.8,3.3H211.6z M205.4,117.6c-0.5,2.3,0.1,4,2.4,4
		c1.4,0,2.6-0.7,3.1-2.3h2.1c-0.2,0.6-0.5,1.5-1.5,2.3c-0.6,0.6-1.9,1.5-4.2,1.5c-3.5,0-4.7-2.2-4-5.7c0.5-2.2,1.3-4,3.3-5.3
		c1.2-0.8,2.6-0.8,3.2-0.8c5,0,4,4.4,3.5,6.3H205.4z"/>
	<path fill="#808285" d="M223.2,108.3c-0.4,0-0.8,0-1.2,0c-1.7,0-1.9,0.9-2,1.6l-0.4,1.8h2.6l-0.3,1.5h-2.6l-2.1,9.7h-2.1l2.1-9.7
		H215l0.3-1.5h2.2l0.3-1.3c0.3-1.5,0.5-2.1,1-2.7c0.6-0.7,1.6-1.2,3.1-1.2c0.6,0,1.3,0.1,1.7,0.2L223.2,108.3z"/>
	<path fill="#808285" d="M224.3,106.8h2.5l-0.5,2.3h-2.5L224.3,106.8z M223.5,111.6h2.1l-2.4,11.2h-2.1L223.5,111.6z"/>
	<g>
		<path fill="#808285" d="M228.6,112.9l0.3-1.3h2.1l-0.4,1.8c0.3-0.5,1.5-2,4-2c1,0,4,0.4,3.3,3.8l-1.6,7.6h-2.1l1.5-7.1
			c0.2-0.7,0.2-1.4-0.2-1.9c-0.4-0.5-1.1-0.8-1.8-0.8c-1.5,0-3.2,1.1-3.6,3.4l-1.4,6.5h-2.1L228.6,112.9z"/>
	</g>
	<path fill="#808285" d="M242.4,106.8h2.5l-0.5,2.3h-2.5L242.4,106.8z M241.6,111.6h2.1l-2.4,11.2h-2.1L241.6,111.6z"/>
	<path fill="#808285" d="M246.7,112.9l0.3-1.3h2.1l-0.4,1.8c0.3-0.5,1.5-2,4-2c1,0,4,0.4,3.3,3.8l-1.6,7.6h-2.1l1.5-7.1
		c0.2-0.7,0.2-1.4-0.2-1.9c-0.4-0.5-1.1-0.8-1.8-0.8c-1.5,0-3.2,1.1-3.6,3.4l-1.4,6.5h-2.1L246.7,112.9z"/>
	<path fill="#808285" d="M264.8,120c0.6-0.6,1-1.2,1.4-3.2c0.3-1.4,0.2-2.2-0.3-2.8c-0.4-0.6-1.2-1-2.2-1c-2.7,0-3.6,2.7-3.9,4.1
		c-0.4,1.7-0.3,4,2.2,4C263.3,121.1,264.1,120.7,264.8,120 M259.1,123.7c-0.2,1.3,0.2,2.2,2.1,2.2c2.9,0,3.4-2.1,4.1-5.2
		c-1.3,1.9-3.4,1.9-4.1,1.9c-1,0-2.5-0.2-3.1-1.4c-0.7-1.1-0.7-2.6-0.4-4.1c0.8-3.8,3.4-5.7,6.2-5.7c2.3,0,2.8,1.1,3.2,1.7l0.3-1.5
		h2l-0.5,2l-1.5,7c-0.6,2.7-0.9,3.8-1.5,4.7c-1.3,1.8-3.6,2-5.1,2c-4.5,0-4.2-2.1-3.9-3.6H259.1z"/>
	<path fill="#808285" d="M279.4,113.7h3.5c0.2,0,1.5,0,2.2-0.4c0.3-0.2,1.3-0.8,1.5-2.1c0.6-2.6-1.8-2.6-2.7-2.6h-3.5L279.4,113.7z
		 M278.7,106.7h5.8c0.8,0,2.5,0,3.5,0.8c1,0.8,1.4,2,1.1,3.3c-0.2,1.1-0.9,2.1-1.7,2.9c-0.8,0.7-1.6,0.9-2.1,1.1
		c1.5,0.4,2,1.1,1.8,3.1c-0.2,1.9-0.3,3.3-0.1,5.1h-2.4c-0.1-1.1,0.1-3,0.2-4.3c0.2-2.3-0.2-3-2.9-3h-2.8l-1.5,7.3h-2.2L278.7,106.7
		z"/>
	<path fill="#808285" d="M298,116.2c0.2-1.1,0.5-3.3-2.1-3.3c-1.4,0-3.2,0.8-3.8,3.3H298z M291.8,117.6c-0.5,2.3,0.1,4,2.4,4
		c1.4,0,2.6-0.7,3.1-2.3h2.1c-0.2,0.6-0.5,1.5-1.5,2.3c-0.6,0.6-1.9,1.5-4.2,1.5c-3.5,0-4.7-2.2-4-5.7c0.5-2.2,1.3-4,3.3-5.3
		c1.2-0.8,2.6-0.8,3.2-0.8c5,0,4,4.4,3.5,6.3H291.8z"/>
	<path fill="#808285" d="M302.8,119.5c-0.2,0.9,0,2,2,2c0.9,0,1.6-0.2,2.1-0.7c0.3-0.3,0.5-0.7,0.6-1.1c0.2-1.1-0.5-1.3-2.1-1.7
		c-2.2-0.5-4.1-1-3.6-3.4c0.4-2.1,2.5-3.4,5.1-3.4c1.4,0,3.3,0.4,3.7,1.7c0.2,0.6,0,1.2-0.1,1.6h-2.1c0.4-1.7-1-1.8-1.8-1.8
		c-0.3,0-2.3,0-2.6,1.6c-0.2,1,0.7,1.3,1.3,1.4c2.9,0.7,3.6,0.9,4.1,1.5c0.5,0.6,0.6,1.4,0.4,2.1c-0.3,1.3-1.2,2.3-2.1,2.8
		c-1.1,0.6-2.3,0.8-3.5,0.8c-2.3,0-4.2-0.9-3.6-3.6H302.8z"/>
	<path fill="#808285" d="M314.4,106.8h2.5l-0.5,2.3h-2.5L314.4,106.8z M313.6,111.6h2.1l-2.4,11.2h-2.1L313.6,111.6z"/>
	<path fill="#808285" d="M318.7,112.9l0.3-1.3h2.1l-0.4,1.8c0.3-0.5,1.5-2,4-2c1,0,4,0.4,3.3,3.8l-1.6,7.6h-2.1l1.5-7.1
		c0.2-0.7,0.2-1.4-0.2-1.9c-0.4-0.5-1.1-0.8-1.8-0.8c-1.5,0-3.2,1.1-3.6,3.4l-1.4,6.5h-2.1L318.7,112.9z"/>
	<path fill="#808285" d="M337.2,121h2.2c1.5,0,3.2-0.1,4.4-0.9c2.4-1.5,3-4.2,3.2-5.1c0.1-0.6,0.7-3.4-0.5-5c-0.8-1.1-2-1.4-4-1.4
		h-2.7L337.2,121z M338,106.7h4.7c2.2,0,4.7,0,6.1,2.1c1.1,1.7,1.2,3.9,0.7,6.1c-0.7,3.5-2.6,5.6-4.1,6.6c-1.9,1.3-3.9,1.3-6.2,1.3
		h-4.5L338,106.7z"/>
	<path fill="#808285" d="M353.1,106.8h2.5l-0.5,2.3h-2.5L353.1,106.8z M352.3,111.6h2.1l-2.4,11.2h-2.1L352.3,111.6z"/>
	<path fill="#808285" d="M357.1,119.5c-0.2,0.9,0,2,2,2c0.9,0,1.6-0.2,2.1-0.7c0.3-0.3,0.5-0.7,0.6-1.1c0.2-1.1-0.5-1.3-2.1-1.7
		c-2.2-0.5-4.1-1-3.6-3.4c0.4-2.1,2.5-3.4,5.1-3.4c1.4,0,3.3,0.4,3.7,1.7c0.2,0.6,0,1.2-0.1,1.6h-2.1c0.4-1.7-1-1.8-1.8-1.8
		c-0.3,0-2.3,0-2.6,1.6c-0.2,1,0.7,1.3,1.3,1.4c2.9,0.7,3.6,0.9,4.1,1.5c0.5,0.6,0.6,1.4,0.4,2.1c-0.3,1.3-1.2,2.3-2.1,2.8
		c-1.1,0.6-2.3,0.8-3.5,0.8c-2.3,0-4.2-0.9-3.6-3.6H357.1z"/>
	<path fill="#808285" d="M366.1,111.6h2l0.5-2.3l2.2-0.7l-0.6,3h2.5l-0.3,1.5h-2.5l-1.4,6.7c-0.1,0.6-0.3,1.5,1.2,1.5
		c0.4,0,0.8-0.1,1-0.1l-0.3,1.6c-0.4,0.1-1,0.1-1.8,0.1c-1.9,0-2.7-0.6-2.3-2.4l1.6-7.5h-2L366.1,111.6z"/>
	<path fill="#808285" d="M374,113.9c0.2-0.8,0.3-1.5,0.4-2.3h2.1l-0.4,2.2c0.7-1.6,2.2-2.1,3.2-2.2c0.6-0.1,1.1-0.1,1.5,0l-0.4,2.1
		c-0.1,0-0.2-0.1-0.4-0.1c-0.1,0-0.3,0-0.6,0c-2.5,0-3.4,1.5-3.8,3.4l-1.3,6h-2.1L374,113.9z"/>
	<path fill="#808285" d="M383,106.8h2.5l-0.5,2.3h-2.5L383,106.8z M382.2,111.6h2.1l-2.4,11.2h-2.1L382.2,111.6z"/>
	<path fill="#808285" d="M392.6,112.8c-3.2,0-4,3.8-4.2,4.5c-0.2,0.7-0.9,4.2,2.2,4.2c2.6,0,3.8-2.5,4.2-4.4
		C395,116,395.5,112.8,392.6,112.8 M389.3,113.3c0.4-0.5,1.5-1.9,4.1-1.9c1.1,0,2.5,0.3,3.2,1.4c0.4,0.6,0.9,1.8,0.4,4.2
		c-0.5,2.2-1.2,3.4-1.9,4.1c-1.2,1.3-2.8,1.9-4.3,1.9c-0.5,0-1.5-0.1-2.4-0.7c-0.5-0.4-0.7-0.8-0.9-1.1l-0.4,1.7h-2l0.5-2l3-14.1
		h2.1L389.3,113.3z"/>
	<path fill="#808285" d="M402.2,111.6l-1.5,7.2c-0.2,1.1-0.3,2.5,1.9,2.5c1.1,0,2.1-0.4,2.9-1.3c0.6-0.7,0.8-1.5,0.9-2.1l1.3-6.3
		h2.2l-1.9,9.1c0,0.2-0.3,1.5-0.4,2.1h-2.2l0.4-1.9c-0.6,0.8-1.6,2-4,2c-2.8,0-3.7-1.6-3.3-3.8l1.6-7.5H402.2z"/>
	<path fill="#808285" d="M411.3,111.6h2l0.5-2.3l2.2-0.7l-0.6,3h2.5l-0.3,1.5h-2.5l-1.4,6.7c-0.1,0.6-0.3,1.5,1.2,1.5
		c0.4,0,0.8-0.1,1-0.1l-0.3,1.6c-0.4,0.1-1,0.1-1.8,0.1c-1.9,0-2.7-0.6-2.3-2.4l1.6-7.5h-2L411.3,111.6z"/>
	<path fill="#808285" d="M420.4,106.8h2.5l-0.5,2.3H420L420.4,106.8z M419.6,111.6h2.1l-2.4,11.2h-2.1L419.6,111.6z"/>
	<path fill="#808285" d="M427.5,121.7c1.6,0,3.6-1.1,4.4-4.5c0.6-2.8-0.4-4.3-2.4-4.3c-1.3,0-3.7,0.8-4.4,4.4
		C424.6,119.6,425.1,121.7,427.5,121.7 M429.9,111.4c4.5,0,4.7,3.5,4.3,5.9c-0.7,3.3-3.1,6-7,6c-3.7,0-5-2.6-4.3-5.9
		C423.5,114.6,425.5,111.4,429.9,111.4"/>
	<path fill="#808285" d="M437.5,112.9l0.3-1.3h2.1l-0.4,1.8c0.3-0.5,1.5-2,4-2c1,0,4,0.4,3.3,3.8l-1.6,7.6H443l1.5-7.1
		c0.2-0.7,0.2-1.4-0.2-1.9c-0.4-0.5-1.1-0.8-1.8-0.8c-1.5,0-3.2,1.1-3.6,3.4l-1.4,6.5h-2.1L437.5,112.9z"/>
	<path fill="#6D6E71" d="M451.5,109.5h0.4c0.3,0,0.7,0,0.7-0.4c0-0.4-0.4-0.4-0.7-0.4h-0.4V109.5z M450.5,107.9h1.7
		c0.6,0,1.3,0,1.3,0.9c0,0.4-0.2,0.8-0.9,0.9v0c0.7,0,0.7,0.4,0.8,0.7c0.1,0.8,0.1,0.8,0.2,1.1h-1.1c-0.1-0.2-0.1-0.5-0.1-0.8
		c-0.1-0.4-0.1-0.6-0.5-0.6h-0.4v1.4h-1V107.9z M449.3,109.7c0,1.5,1.2,2.7,2.7,2.7c1.5,0,2.7-1.2,2.7-2.7c0-1.5-1.2-2.7-2.7-2.7
		C450.5,107,449.3,108.2,449.3,109.7 M455.2,109.7c0,1.8-1.5,3.2-3.2,3.2c-1.8,0-3.2-1.5-3.2-3.2c0-1.8,1.5-3.2,3.2-3.2
		C453.7,106.5,455.2,107.9,455.2,109.7"/>
</g>
</svg>
